<svg xmlns="http://www.w3.org/2000/svg" width="18.526" height="21.607" viewBox="0 0 18.526 21.607">
  <g id="Schloss" transform="translate(1 1)">
    <g id="Gruppe_21" data-name="Gruppe 21" transform="translate(0.107 -0.393)">
      <path id="Pfad_49" data-name="Pfad 49" d="M21.467-6.509a3.53,3.53,0,0,0-.828-2.3,2.649,2.649,0,0,0-2-.954H16.6a2.65,2.65,0,0,0-2,.954,3.53,3.53,0,0,0-.827,2.3v3.783h7.688Z" transform="translate(-9.467 10.16)" fill="none" stroke="#3b8fff" stroke-linecap="round" stroke-linejoin="round" stroke-width="2"/>
      <path id="Pfad_50" data-name="Pfad 50" d="M28.414-1.709a2.544,2.544,0,0,0-.561-1.623A1.772,1.772,0,0,0,26.5-4H13.8a1.772,1.772,0,0,0-1.355.672,2.544,2.544,0,0,0-.561,1.623V6.256a2.545,2.545,0,0,0,.561,1.624,1.772,1.772,0,0,0,1.355.672H26.5a1.772,1.772,0,0,0,1.355-.672,2.545,2.545,0,0,0,.561-1.624Z" transform="translate(-11.995 11.448)" fill="none" stroke="#3b8fff" stroke-linecap="round" stroke-linejoin="round" stroke-width="2"/>
    </g>
  </g>
</svg>
